<svg id="Layer_1" data-name="Layer 1" xmlns="http://www.w3.org/2000/svg" width="60" height="60" viewBox="0 0 60 60"><defs><style>.cls-1{fill:#255360;}.cls-2{fill:#fff;}</style></defs><title>Location_Footer</title><path class="cls-1" d="M29.85,1.88c-17.21,0-17.75,15.94-15.42,22.58,4,11.39,15.71,33.67,15.71,33.67S41.71,35.84,45.69,24.46C48,17.82,46.58,1.89,29.85,1.88Z"/><path class="cls-2" d="M41.3,44.31a0.5,0.5,0,0,0-.39-0.6,17.78,17.78,0,0,1-5.66-2.07,0.55,0.55,0,0,1-.15-0.13,29.26,29.26,0,0,1-5.52-13,19.12,19.12,0,0,1-.06-6.85,0.53,0.53,0,0,1,.1-0.22c4-5.16,11.59-7.33,18-7l0.37,0a0.49,0.49,0,0,0,.52-0.38l0-.08a0.5,0.5,0,0,0-.42-0.61,22.79,22.79,0,0,0-16.18,4.71,0.5,0.5,0,0,1-.72-0.67A11,11,0,0,1,35,14c3.9-2.25,9.13-3.89,13.57-2.62l0.4,0.13a0.49,0.49,0,0,0,.46-0.07,0.84,0.84,0,0,0,.37-0.59,0.84,0.84,0,0,0,0-.53,0.49,0.49,0,0,0-.4-0.28c-3.95-.44-8.38.43-12.09,0.81-4.81.49-6.58,3.13-9.72,6.62-0.41.46-.2,0.68,0.22,0.21,2.06-2.29,4.12-4.85,7.18-5.85a7,7,0,0,1,.86-0.22,0.5,0.5,0,0,1,.32.92A15.08,15.08,0,0,0,29,21a0.45,0.45,0,0,1-.07.14q-0.25.33-.48,0.66a0.5,0.5,0,0,1-.9-0.37,13.42,13.42,0,0,1,2.13-5.27c0.39-.55-0.41,0-0.56.21a16.56,16.56,0,0,0-2.69,9.8,0.43,0.43,0,0,1,0,.11c-2.18,8.52,3.38,17,11.69,19.38l0.11,0a12.9,12.9,0,0,0,1.88,1,0.5,0.5,0,0,0,.68-0.34L41,45.71a0.5,0.5,0,0,0-.42-0.61,16.17,16.17,0,0,1-2-.42,0.54,0.54,0,0,1-.16-0.08,14.33,14.33,0,0,1-1.16-.9,18.31,18.31,0,0,0,3.52,1A0.5,0.5,0,0,0,41.3,44.31Zm-14-17.92a0.55,0.55,0,0,1,0-.16l0.11-.42a0.5,0.5,0,0,1,1,.11v0a30.11,30.11,0,0,0,4,13.43C29.41,36.24,27.57,31.25,27.29,26.38Zm-0.37,4c1,5,3.66,9.64,7.54,12l0.11,0.09c0.29,0.34.59,0.67,0.9,1A15.74,15.74,0,0,1,26.93,30.37Z"/></svg>