<svg id="Layer_1" data-name="Layer 1" xmlns="http://www.w3.org/2000/svg" width="60" height="60" viewBox="0 0 60 60"><defs><style>.cls-1{fill:#255360;}.cls-2{fill:#fff;}</style></defs><title>Phone_Footer</title><rect class="cls-1" x="14.32" y="0.54" width="31.36" height="58.91" rx="0.42" ry="0.42"/><rect class="cls-2" x="16.3" y="2.84" width="27.39" height="48.98" rx="0.41" ry="0.41"/><rect class="cls-2" x="26.39" y="55.04" width="7.22" height="1.59" rx="0.24" ry="0.24"/><path class="cls-1" d="M40.67,19.21H19.29V35h16a2.18,2.18,0,0,1-.25,2.4s2.63-.63,3.63-2.4h2V19.21Z"/><path class="cls-2" d="M21.27,22.62h0.68v2.71c0,0.23,0,.41,0,0.41h0a2.14,2.14,0,0,1,2-1.24c1.23,0,1.67.71,1.67,1.94v3.18H24.93v-3c0-.79-0.12-1.48-1.08-1.48A1.9,1.9,0,0,0,22,26.55a2.35,2.35,0,0,0-.08.67v2.4H21.27v-7Z"/><path class="cls-2" d="M29.28,24.49a2.09,2.09,0,0,1,2.09,2.31c0,0.12,0,.35,0,0.35H27.51a1.88,1.88,0,0,0,1.94,2A2.33,2.33,0,0,0,31,28.52L31.28,29a2.87,2.87,0,0,1-1.85.7,2.53,2.53,0,0,1-2.62-2.62A2.44,2.44,0,0,1,29.28,24.49Zm1.4,2.1a1.41,1.41,0,0,0-1.42-1.53,1.7,1.7,0,0,0-1.72,1.53h3.14Z"/><path class="cls-2" d="M32.18,30.87a1.08,1.08,0,0,0,.6.23,1.12,1.12,0,0,0,.95-0.82L34,29.58l-2.09-5h0.75l1.47,3.65c0.1,0.25.18,0.53,0.18,0.53h0a4.73,4.73,0,0,1,.17-0.53L36,24.61H36.7l-2.47,6a1.54,1.54,0,0,1-1.44,1,1.48,1.48,0,0,1-.88-0.3Z"/><path class="cls-2" d="M38,28.85h0.77v0.77H38V28.85Zm0-6.23h0.7l0,5.16H38Z"/></svg>